<svg width="196" height="97" viewBox="0 0 196 97" fill="none" xmlns="http://www.w3.org/2000/svg">
<path d="M14.6494 11.2554V37.6628H18.1356V19.3267C18.1356 19.2639 18.148 19.2017 18.1721 19.1437C18.1962 19.0857 18.2315 19.033 18.276 18.9887C18.3206 18.9443 18.3734 18.9092 18.4315 18.8854C18.4897 18.8615 18.5519 18.8494 18.6147 18.8497H32.0463C32.1728 18.8497 32.2942 18.9 32.3836 18.9894C32.4731 19.0789 32.5233 19.2002 32.5233 19.3267V47.5315C32.5236 47.5934 32.5116 47.6548 32.4881 47.712C32.4645 47.7692 32.4299 47.8212 32.3861 47.865C32.3424 47.9087 32.2904 47.9434 32.2331 47.9669C32.1759 47.9905 32.1146 48.0025 32.0527 48.0022H0.727977C0.666092 48.0025 0.604763 47.9905 0.547534 47.9669C0.490305 47.9434 0.43831 47.9087 0.39455 47.865C0.35079 47.8212 0.316133 47.7692 0.29258 47.712C0.269028 47.6548 0.257047 47.5934 0.257329 47.5315V1.38886C0.257047 1.32698 0.269028 1.26565 0.29258 1.20842C0.316133 1.15119 0.35079 1.0992 0.39455 1.05544C0.43831 1.01168 0.490305 0.977021 0.547534 0.953469C0.604763 0.929917 0.666092 0.917936 0.727977 0.918218H27.3313C28.7093 0.918782 30.0307 1.46643 31.005 2.4408C31.9794 3.41517 32.527 4.73654 32.5276 6.11451V10.7997C32.5276 10.8614 32.5154 10.9225 32.4917 10.9795C32.4681 11.0365 32.4334 11.0882 32.3896 11.1317C32.3459 11.1753 32.294 11.2097 32.2369 11.2332C32.1798 11.2566 32.1187 11.2685 32.057 11.2682L14.6494 11.2554Z" fill="white"/>
<path d="M64.2164 9.12796H37.332C37.2587 9.1274 37.1861 9.14128 37.1181 9.1688C37.0502 9.19632 36.9884 9.23695 36.9362 9.28836C36.884 9.33978 36.8424 9.40098 36.8139 9.46846C36.7853 9.53594 36.7703 9.60839 36.7698 9.68166V47.4485C36.7703 47.5218 36.7853 47.5942 36.8139 47.6617C36.8424 47.7292 36.884 47.7904 36.9362 47.8418C36.9884 47.8932 37.0502 47.9339 37.1181 47.9614C37.1861 47.9889 37.2587 48.0028 37.332 48.0022H64.2164C64.3121 48.0031 64.407 47.985 64.4957 47.9492C64.5843 47.9134 64.6651 47.8605 64.7333 47.7934C64.8016 47.7264 64.8559 47.6466 64.8933 47.5585C64.9307 47.4705 64.9503 47.3759 64.9512 47.2803V9.85203C64.9506 9.7562 64.9311 9.66143 64.8939 9.57314C64.8566 9.48485 64.8023 9.40477 64.7341 9.33751C64.6658 9.27024 64.585 9.21711 64.4961 9.18115C64.4073 9.14519 64.3123 9.12712 64.2164 9.12796V9.12796ZM57.1226 36.762C54.8503 38.5914 45.1371 35.3394 44.3108 27.8176C43.5101 20.5193 48.8895 15.8363 50.7167 16.2345C52.5439 16.6328 51.1299 21.7205 52.5759 26.395C53.9516 30.8417 58.5687 34.9327 57.1226 36.762Z" fill="white"/>
<path d="M93.8247 28.0092H89.87V24.8851H94.2038C94.4635 24.8854 94.7207 24.8344 94.9607 24.7353C95.2008 24.6361 95.4189 24.4905 95.6026 24.307C95.7864 24.1234 95.9321 23.9055 96.0316 23.6656C96.131 23.4257 96.1822 23.1685 96.1822 22.9088V9.45165C96.1822 9.36184 96.1465 9.27572 96.083 9.21221C96.0195 9.14871 95.9334 9.11304 95.8436 9.11304H73.1694C73.1069 9.11306 73.045 9.12688 72.9884 9.1535H69.6236C69.4775 9.15406 69.3375 9.21235 69.2342 9.31567C69.1309 9.41899 69.0726 9.55896 69.072 9.70507V47.4506C69.0726 47.5967 69.1309 47.7367 69.2342 47.84C69.3375 47.9433 69.4775 48.0016 69.6236 48.0022H79.0685C79.141 48.0025 79.2129 47.9884 79.2799 47.9608C79.347 47.9332 79.4079 47.8926 79.4592 47.8413C79.5104 47.79 79.551 47.7291 79.5787 47.662C79.6063 47.595 79.6204 47.5231 79.6201 47.4506V33.1204H83.5599V47.6018C83.5599 47.7075 83.6019 47.8087 83.6765 47.8834C83.7512 47.9581 83.8525 48.0001 83.9581 48.0001H94.0611C94.6762 48.0001 95.2664 47.7566 95.7025 47.3228C96.1387 46.8891 96.3854 46.3003 96.3888 45.6852V29.7129C96.3888 28.5331 95.0067 28.0092 93.8247 28.0092ZM83.4321 22.4062H79.5988V19.3842C79.5988 18.4238 80.2654 17.6443 81.6028 17.6443C82.7698 17.6443 83.4385 18.3088 83.4385 19.1351L83.4321 22.4062Z" fill="white"/>
<path d="M100.527 9.71145V47.4442C100.527 47.7524 100.776 48.0022 101.085 48.0022H112.108C112.416 48.0022 112.665 47.7524 112.665 47.4442V9.71145C112.665 9.4033 112.416 9.15349 112.108 9.15349H101.085C100.776 9.15349 100.527 9.4033 100.527 9.71145Z" fill="white"/>
<path d="M139.995 39.275V47.6615C139.995 47.7515 139.96 47.8378 139.896 47.9017C139.833 47.9655 139.746 48.0016 139.656 48.0022H117.195C117.122 48.0022 117.049 47.9877 116.981 47.9595C116.913 47.9314 116.852 47.8901 116.8 47.838C116.748 47.786 116.707 47.7242 116.679 47.6563C116.651 47.5883 116.637 47.5156 116.637 47.4421V9.71147C116.637 9.56349 116.696 9.42157 116.801 9.31693C116.905 9.2123 117.047 9.15351 117.195 9.15351H128.216C128.29 9.15323 128.362 9.16745 128.43 9.19537C128.498 9.22328 128.56 9.26434 128.612 9.31618C128.664 9.36802 128.705 9.42962 128.734 9.49745C128.762 9.56529 128.776 9.63802 128.776 9.71147V38.9342H139.656C139.701 38.9342 139.745 38.9431 139.787 38.9602C139.828 38.9774 139.865 39.0025 139.897 39.0342C139.928 39.0658 139.953 39.1034 139.97 39.1448C139.987 39.1861 139.995 39.2303 139.995 39.275Z" fill="white"/>
<path d="M167.41 39.275V47.6615C167.41 47.7518 167.374 47.8385 167.31 47.9024C167.246 47.9663 167.159 48.0022 167.069 48.0022H144.61C144.461 48.0022 144.319 47.9432 144.214 47.8382C144.109 47.7331 144.05 47.5907 144.05 47.4421V9.71147C144.05 9.63802 144.064 9.56529 144.093 9.49745C144.121 9.42962 144.162 9.36802 144.214 9.31618C144.266 9.26434 144.328 9.22328 144.396 9.19537C144.464 9.16745 144.537 9.15323 144.61 9.15351H155.633C155.781 9.15351 155.923 9.2123 156.028 9.31693C156.132 9.42157 156.191 9.56349 156.191 9.71147V38.9342H167.065C167.11 38.9334 167.155 38.9416 167.197 38.9584C167.239 38.9751 167.277 39.0001 167.309 39.0319C167.341 39.0636 167.367 39.1015 167.384 39.1433C167.401 39.185 167.41 39.2298 167.41 39.275V39.275Z" fill="white"/>
<path d="M163.64 57.9476H158.742C158.683 57.922 142.116 57.922 142.057 57.9476H140.444C140.374 57.9476 140.304 57.9615 140.239 57.9885C140.174 58.0155 140.115 58.055 140.066 58.1049C140.016 58.1547 139.977 58.2139 139.95 58.279C139.923 58.3441 139.91 58.4139 139.91 58.4842V96.2617C139.91 96.4035 139.966 96.5395 140.066 96.6397C140.167 96.74 140.303 96.7963 140.444 96.7963H148.563C148.704 96.7963 148.84 96.74 148.941 96.6397C149.041 96.5395 149.097 96.4035 149.097 96.2617V81.0839H153.009V96.2617C153.009 96.3321 153.023 96.4018 153.05 96.4668C153.077 96.5318 153.117 96.5908 153.167 96.6405C153.216 96.6901 153.276 96.7295 153.341 96.7562C153.406 96.7829 153.476 96.7966 153.546 96.7963H163.636C163.778 96.7963 163.914 96.74 164.014 96.6397C164.114 96.5395 164.171 96.4035 164.171 96.2617V58.4842C164.171 58.3428 164.116 58.207 164.016 58.1064C163.917 58.0058 163.782 57.9487 163.64 57.9476V57.9476ZM153.009 71.2407H149.176V68.2358C149.176 67.2732 149.843 66.4959 151.178 66.4959C152.345 66.4959 153.014 67.1582 153.014 67.9866L153.009 71.2407Z" fill="white"/>
<path d="M180.013 66.9942V87.7517H183.846V72.5377C183.846 72.4304 183.889 72.3274 183.965 72.2516C184.041 72.1757 184.144 72.133 184.251 72.133H195.14C195.193 72.1328 195.246 72.143 195.295 72.1632C195.345 72.1834 195.389 72.2132 195.427 72.2508C195.465 72.2884 195.495 72.3331 195.515 72.3823C195.536 72.4316 195.546 72.4844 195.546 72.5377V96.4768C195.546 96.5215 195.538 96.5657 195.52 96.6069C195.503 96.6481 195.478 96.6856 195.447 96.717C195.415 96.7485 195.377 96.7734 195.336 96.7903C195.295 96.8072 195.25 96.8157 195.206 96.8154H168.873C168.799 96.8157 168.727 96.8015 168.659 96.7736C168.591 96.7457 168.529 96.7046 168.477 96.6528C168.425 96.6009 168.384 96.5393 168.355 96.4715C168.327 96.4037 168.313 96.3309 168.313 96.2575V58.5247C168.313 58.4512 168.327 58.3785 168.355 58.3107C168.384 58.2428 168.425 58.1812 168.477 58.1294C168.529 58.0776 168.591 58.0365 168.659 58.0086C168.727 57.9807 168.799 57.9665 168.873 57.9667H176.471C176.52 57.9421 176.573 57.929 176.627 57.9284H189.224C190.9 57.9284 192.508 58.5943 193.693 59.7797C194.878 60.9651 195.544 62.5728 195.544 64.2491V66.6535C195.544 66.7439 195.508 66.8305 195.445 66.8944C195.381 66.9583 195.294 66.9942 195.204 66.9942H180.013Z" fill="white"/>
<path d="M172.033 9.1535C171.963 9.1535 171.893 9.1674 171.828 9.1944C171.763 9.22139 171.704 9.26096 171.654 9.31082C171.605 9.36068 171.565 9.41986 171.539 9.48496C171.512 9.55006 171.498 9.6198 171.499 9.69017V47.4677C171.499 47.6094 171.555 47.7454 171.655 47.8456C171.755 47.9459 171.891 48.0022 172.033 48.0022H180.151C180.293 48.0022 180.429 47.9459 180.529 47.8456C180.63 47.7454 180.686 47.6094 180.686 47.4677V32.2898H184.596V47.4677C184.596 47.538 184.61 47.6077 184.637 47.6727C184.664 47.7377 184.703 47.7967 184.753 47.8464C184.803 47.8961 184.862 47.9354 184.927 47.9621C184.992 47.9889 185.062 48.0025 185.133 48.0022H195.223C195.364 48.0022 195.5 47.9459 195.601 47.8456C195.701 47.7454 195.757 47.6094 195.757 47.4677V9.69443C195.758 9.62406 195.744 9.55432 195.717 9.48922C195.69 9.42412 195.651 9.36494 195.601 9.31508C195.552 9.26522 195.493 9.22566 195.428 9.19866C195.363 9.17166 195.293 9.15777 195.223 9.15777H190.325M184.596 22.4573H180.763V19.4417C180.763 18.4792 181.429 17.7018 182.764 17.7018C183.931 17.7018 184.6 18.3642 184.6 19.1926L184.596 22.4573Z" fill="white"/>
<path d="M135.972 57.9284V68.1506H129.903V96.7196H118.19V68.1506H112.819C111.278 68.1489 109.8 67.5354 108.71 66.4449C107.621 65.3544 107.009 63.876 107.009 62.3346V57.9284H135.972Z" fill="white"/>
</svg>
